HIERARCHY
ROOT Hips
{
    OFFSET 0.000000 0.000000 0.000000
    CHANNELS 6 Xposition Yposition Zposition Zrotation Xrotation Yrotation
    JOINT Spine
    {
        OFFSET -0.000000 7.236184 0.000000
        CHANNELS 3 Zrotation Xrotation Yrotation
        JOINT Spine1
        {
            OFFSET -0.000000 20.420147 0.000000
            CHANNELS 3 Zrotation Xrotation Yrotation
            JOINT Neck
            {
                OFFSET -0.000000 20.336288 1.848754
                CHANNELS 3 Zrotation Xrotation Yrotation
                JOINT Head
                {
                    OFFSET -0.000000 12.354461 -1.764923
                    CHANNELS 3 Zrotation Xrotation Yrotation
                    End Site
                    {
                        OFFSET -0.000000 22.061537 0.000000
                    }
                }
            }
            JOINT LeftShoulder
            {
                OFFSET 3.573296 18.396038 -0.314103
                CHANNELS 3 Zrotation Xrotation Yrotation
                JOINT LeftArm
                {
                    OFFSET 10.880760 0.000000 0.000000
                    CHANNELS 3 Zrotation Xrotation Yrotation
                    JOINT LeftForeArm
                    {
                        OFFSET 27.185530 0.000000 0.000000
                        CHANNELS 3 Zrotation Xrotation Yrotation
                        JOINT LeftHand
                        {
                            OFFSET 27.825975 0.000000 0.000000
                            CHANNELS 3 Zrotation Xrotation Yrotation
                            End Site
                            {
                                OFFSET 13.236923 0.000000 0.000000
                            }
                        }
                    }
                }
            }
            JOINT RightShoulder
            {
                OFFSET -3.474926 18.396038 -0.314103
                CHANNELS 3 Zrotation Xrotation Yrotation
                JOINT RightArm
                {
                    OFFSET -10.880760 0.000000 0.000000
                    CHANNELS 3 Zrotation Xrotation Yrotation
                    JOINT RightForeArm
                    {
                        OFFSET -27.185530 0.000000 0.000000
                        CHANNELS 3 Zrotation Xrotation Yrotation
                        JOINT RightHand
                        {
                            OFFSET -27.825975 0.000000 0.000000
                            CHANNELS 3 Zrotation Xrotation Yrotation
                            End Site
                            {
                                OFFSET -13.236923 0.000000 0.000000
                            }
                        }
                    }
                }
            }
        }
    }
    JOINT LeftUpLeg
    {
        OFFSET 8.824615 0.000000 0.000000
        CHANNELS 3 Zrotation Xrotation Yrotation
        JOINT LeftLeg
        {
            OFFSET -0.000000 -35.111282 0.000000
            CHANNELS 3 Zrotation Xrotation Yrotation
            JOINT LeftFoot
            {
                OFFSET -0.000000 -42.324711 0.000000
                CHANNELS 3 Zrotation Xrotation Yrotation
                JOINT LeftToeBase
                {
                    OFFSET -0.000000 -5.735999 13.236923
                    CHANNELS 3 Zrotation Xrotation Yrotation
                    End Site
                    {
                        OFFSET -0.000000 0.000000 3.529846
                    }
                }
            }
        }
    }
    JOINT RightUpLeg
    {
        OFFSET -8.824615 0.000000 0.000000
        CHANNELS 3 Zrotation Xrotation Yrotation
        JOINT RightLeg
        {
            OFFSET -0.000000 -35.111282 0.000000
            CHANNELS 3 Zrotation Xrotation Yrotation
            JOINT RightFoot
            {
                OFFSET -0.000000 -42.324711 0.000000
                CHANNELS 3 Zrotation Xrotation Yrotation
                JOINT RightToeBase
                {
                    OFFSET -0.000000 -5.735999 13.236923
                    CHANNELS 3 Zrotation Xrotation Yrotation
                    End Site
                    {
                        OFFSET -0.000000 0.000000 3.529846
                    }
                }
            }
        }
    }
}
MOTION
Frames:    14
Frame Time:    0.008333
0.192094    83.216812    106.628738    0.468670    -10.954226    -178.243286    -2.221718    -13.575123    0.041519    2.769272    6.500739    0.148816    4.136579    6.844296    -2.633753    4.355921    -5.472479    -2.276841    -0.644623    18.041113    -2.452752    -47.308353    43.053364    -37.964386    -0.459785    -3.942385    -14.179899    16.411648    -3.809373    1.321102    9.218146    19.517862    -6.715618    39.659958    42.008526    39.890789    -3.956642    -9.080976    18.319088    -14.930456    -7.967062    -3.723517    0.863490    -17.694326    -4.648760    -1.492767    19.399498    5.040463    -4.742164    -11.002383    -11.456416    0.115804    -0.432499    -0.128466    -6.136074    -18.849379    5.377492    4.477437    23.463715    0.895877    2.858224    -7.427405    -11.365392    0.158861    -6.779983    -0.173520
0.236788    83.245911    106.631660    0.407701    -10.943140    -178.473297    -2.225836    -13.558475    0.009841    2.741321    6.516720    0.118583    4.105251    6.839268    -2.593170    4.311329    -5.437554    -2.241732    -0.646631    18.009136    -2.486597    -47.010906    43.180260    -38.089882    -0.522599    -3.897264    -14.173413    16.323273    -3.770078    1.341733    9.207217    19.564892    -6.713434    39.735363    41.940521    39.926632    -4.006560    -9.117831    18.418468    -14.902284    -7.993120    -3.726083    0.977028    -17.517838    -4.401001    -1.571068    19.130602    5.227361    -4.948829    -10.899128    -11.667298    0.131654    -0.357627    -0.146029    -6.422269    -19.087767    5.269269    4.505165    23.799551    0.794349    2.785068    -7.425220    -11.400564    0.172839    -6.980501    -0.188848
0.286365    83.273399    106.629692    0.336776    -10.924852    -178.693512    -2.225109    -13.546145    -0.019805    2.695860    6.534464    0.090539    4.069551    6.841838    -2.554472    4.252112    -5.392449    -2.211074    -0.651258    17.975443    -2.513680    -46.709381    43.287689    -38.217472    -0.582697    -3.847116    -14.159655    16.211649    -3.726756    1.355195    9.195353    19.618835    -6.708345    39.819962    41.875763    39.947582    -4.051820    -9.145225    18.529280    -14.882830    -8.009531    -3.729362    1.083259    -17.321411    -4.137742    -1.644780    18.845747    5.388000    -5.157037    -10.794925    -11.879578    0.147039    -0.278059    -0.163070    -6.743420    -19.276350    5.107691    4.500929    24.070501    0.730704    2.687317    -7.410495    -11.465504    0.190057    -7.152145    -0.207717
0.340537    83.298615    106.622780    0.257820    -10.899899    -178.900497    -2.219962    -13.538114    -0.047049    2.636075    6.551684    0.065894    4.029479    6.852732    -2.518391    4.178585    -5.336990    -2.185465    -0.660024    17.941317    -2.534075    -46.412571    43.371132    -38.342518    -0.638473    -3.793691    -14.137074    16.087643    -3.680586    1.362414    9.182226    19.677416    -6.701032    39.909668    41.820732    39.953693    -4.093872    -9.164107    18.647221    -14.870441    -8.017307    -3.733105    1.181369    -17.108343    -3.864153    -1.713308    18.549227    5.522237    -5.364501    -10.691557    -12.091071    0.162233    -0.196210    -0.179894    -7.093596    -19.413879    4.895494    4.463430    24.274099    0.710894    2.574763    -7.381015    -11.547295    0.210361    -7.294682    -0.229959
0.399826    83.321419    106.610962    0.171248    -10.868985    -179.094971    -2.210633    -13.534012    -0.071054    2.562901    6.565896    0.044584    3.986304    6.872178    -2.484685    4.089689    -5.269954    -2.164971    -0.672480    17.907387    -2.548156    -46.125401    43.428299    -38.462555    -0.689518    -3.737552    -14.103900    15.960613    -3.631716    1.365033    9.168786    19.739168    -6.692211    40.000694    41.780270    39.946102    -4.134248    -9.175830    18.769371    -14.863095    -8.017726    -3.736989    1.272138    -16.879236    -3.582218    -1.777664    18.240719    5.634806    -5.572238    -10.589443    -12.303789    0.177685    -0.113974    -0.196998    -7.471936    -19.503571    4.635266    4.392739    24.413858    0.738838    2.455867    -7.336015    -11.635205    0.233658    -7.410909    -0.255475
0.464608    83.341530    106.594421    0.077624    -10.833139    -179.277100    -2.197836    -13.534589    -0.091525    2.477770    6.576209    0.027334    3.941184    6.899765    -2.453274    3.985371    -5.190698    -2.149618    -0.687548    17.873796    -2.556576    -45.854530    43.456760    -38.574543    -0.735260    -3.679212    -14.058965    15.840690    -3.580221    1.364657    9.155620    19.801567    -6.682577    40.089985    41.758457    39.925510    -4.173515    -9.181129    18.892260    -14.859331    -8.011720    -3.740504    1.355872    -16.635811    -3.295698    -1.838663    17.921030    5.731189    -5.780740    -10.489071    -12.519423    0.193537    -0.032300    -0.214542    -7.875952    -19.548903    4.332954    4.290605    24.493206    0.816753    2.338617    -7.276165    -11.720403    0.259589    -7.503985    -0.283870
0.535104    83.358635    106.573418    -0.022540    -10.793610    -179.447006    -2.183002    -13.540741    -0.107885    2.383043    6.582409    0.014572    3.894938    6.934246    -2.424166    3.866286    -5.098678    -2.139387    -0.703565    17.840487    -2.559811    -45.606251    43.454926    -38.676292    -0.775489    -3.619648    -14.002314    15.737033    -3.526754    1.362684    9.142532    19.862333    -6.673457    40.174850    41.757385    39.894062    -4.211241    -9.180243    19.012127    -14.858457    -7.999869    -3.742733    1.432575    -16.380817    -3.009433    -1.897173    17.592159    5.817276    -5.988887    -10.390757    -12.738818    0.209708    0.047881    -0.232434    -8.302004    -19.553692    3.997787    4.160450    24.516125    0.944505    2.230374    -7.203852    -11.796657    0.287569    -7.576230    -0.314503
0.611231    83.372375    106.548431    -0.128411    -10.751864    -179.604462    -2.167473    -13.553185    -0.119820    2.281050    6.584442    0.006665    3.848148    6.973639    -2.397371    3.734644    -4.993855    -2.133888    -0.719605    17.807156    -2.558400    -45.386570    43.422546    -38.764194    -0.809194    -3.560234    -13.935916    15.656811    -3.472224    1.360704    9.129944    19.919359    -6.666018    40.253017    41.776917    39.853878    -4.246333    -9.172861    19.124887    -14.860388    -7.982365    -3.742361    1.501802    -16.118399    -2.729120    -1.953310    17.257883    5.898416    -6.195508    -10.294254    -12.961783    0.226071    0.125069    -0.250535    -8.744253    -19.522434    3.641713    4.006785    24.487394    1.117689    2.137618    -7.122542    -11.858765    0.316433    -7.630807    -0.346100
0.695355    83.382706    106.519104    -0.242527    -10.708120    -179.753693    -2.151707    -13.573327    -0.127515    2.169994    6.582346    0.003755    3.799953    7.018005    -2.371969    3.588953    -4.873770    -2.132447    -0.734509    17.772564    -2.552590    -45.193966    43.359676    -38.837677    -0.835600    -3.501744    -13.860917    15.603194    -3.417101    1.360294    9.117718    19.973558    -6.660695    40.325371    41.816010    39.806484    -4.278515    -9.157810    19.229256    -14.866084    -7.958228    -3.738400    1.564970    -15.845016    -2.451652    -2.008518    16.912424    5.981242    -6.404866    -10.196223    -13.194360    0.242597    0.200670    -0.268814    -9.210519    -19.457619    3.267769    3.830571    24.409344    1.335031    2.061812    -7.033542    -11.905701    0.345296    -7.670599    -0.377694
0.784529    83.388992    106.487000    -0.360241    -10.665334    -179.889709    -2.137028    -13.601337    -0.130948    2.055303    6.576863    0.005814    3.751877    7.065101    -2.348497    3.436866    -4.745181    -2.134053    -0.747383    17.737352    -2.542897    -45.037338    43.271366    -38.890980    -0.851617    -3.448736    -13.784904    15.579429    -3.365376    1.362922    9.106091    20.022968    -6.657933    40.389099    41.869957    39.756424    -4.305974    -9.134748    19.317842    -14.876898    -7.927786    -3.730465    1.619869    -15.573512    -2.190312    -2.060813    16.570292    6.065571    -6.608141    -10.098763    -13.427099    0.258215    0.271096    -0.286082    -9.679521    -19.365904    2.902617    3.644198    24.289373    1.578892    2.007732    -6.943449    -11.935251    0.371074    -7.695806    -0.405907
0.882209    83.391235    106.451477    -0.485463    -10.623234    179.982254    -2.123120    -13.638718    -0.130385    1.933131    6.568294    0.012455    3.700683    7.114508    -2.325765    3.277520    -4.604259    -2.137505    -0.758243    17.699890    -2.528753    -44.910198    43.158215    -38.924801    -0.855684    -3.402309    -13.710523    15.583798    -3.317868    1.369943    9.094605    20.069281    -6.657929    40.446934    41.938034    39.704517    -4.330001    -9.102728    19.390802    -14.895456    -7.889737    -3.718540    1.668961    -15.296267    -1.938784    -2.112745    16.219982    6.154404    -6.810709    -9.997024    -13.664436    0.273315    0.338089    -0.302776    -10.164439    -19.247684    2.545595    3.446687    24.127007    1.846503    1.973145    -6.851217    -11.948588    0.392514    -7.709420    -0.429370
0.988366    83.389069    106.413101    -0.617086    -10.583058    179.863007    -2.109758    -13.686278    -0.126545    1.803664    6.558044    0.023865    3.647432    7.164818    -2.303178    3.112416    -4.454546    -2.141815    -0.766235    17.659803    -2.509846    -44.812626    43.023766    -38.937794    -0.845797    -3.365802    -13.643448    15.614591    -3.277709    1.381478    9.083260    20.111956    -6.660392    40.500092    42.016132    39.652771    -4.350006    -9.061741    19.444498    -14.924503    -7.844203    -3.703176    1.712843    -15.016314    -1.702391    -2.165265    15.864132    6.244230    -7.008743    -9.891150    -13.897554    0.288357    0.398879    -0.319405    -10.659014    -19.105904    2.211344    3.244687    23.925194    2.124531    1.958246    -6.758434    -11.946074    0.407552    -7.712184    -0.445822
1.101631    83.382416    106.372849    -0.752544    -10.545928    179.754181    -2.096994    -13.743303    -0.118936    1.669096    6.547308    0.038450    3.591992    7.214947    -2.280696    2.947412    -4.302088    -2.145749    -0.771419    17.617876    -2.486951    -44.742645    42.872124    -38.930294    -0.822605    -3.341533    -13.588764    15.668158    -3.247550    1.396603    9.072145    20.151136    -6.664869    40.549519    42.098434    39.603348    -4.365568    -9.013569    19.476643    -14.965852    -7.792889    -3.685852    1.751941    -14.739120    -1.488200    -2.218906    15.509132    6.328985    -7.196578    -9.783181    -14.113948    0.303885    0.452097    -0.336573    -11.152579    -18.944983    1.914945    3.046728    23.690201    2.396834    1.960824    -6.666605    -11.929429    0.415300    -7.705526    -0.454293
1.223680    83.371201    106.330528    -0.893312    -10.511142    179.654236    -2.084683    -13.809630    -0.108462    1.527441    6.536953    0.056720    3.533839    7.264926    -2.257639    2.782054    -4.148980    -2.148545    -0.773575    17.573441    -2.460028    -44.695858    42.703693    -38.903767    -0.786652    -3.330457    -13.548803    15.741438    -3.228573    1.414094    9.061054    20.187269    -6.671689    40.597813    42.182713    39.556416    -4.376633    -8.959887    19.487186    -15.021444    -7.737257    -3.668057    1.787122    -14.462479    -1.296542    -2.274834    15.153114    6.405243    -7.373869    -9.673296    -14.308315    0.321372    0.496929    -0.355912    -11.649086    -18.764175    1.660719    2.855101    23.421961    2.656399    1.978793    -6.573879    -11.900056    0.416376    -7.691165    -0.455460
